<svg xmlns="http://www.w3.org/2000/svg" xmlns:xlink="http://www.w3.org/1999/xlink" viewBox="0 0 1825 1095"><defs><style>.cls-1{fill:none;}.cls-2{isolation:isolate;}.cls-3{clip-path:url(#clip-path);}.cls-4{fill:url(#linear-gradient);}.cls-5{fill:url(#linear-gradient-2);}.cls-6{fill:url(#linear-gradient-3);}.cls-7{mix-blend-mode:multiply;}.cls-8{fill:#f6e6ff;opacity:0;}.cls-9{fill:#f4e4fd;opacity:0.02;}.cls-10{fill:#f2e2fc;opacity:0.04;}.cls-11{fill:#f1e0fa;opacity:0.07;}.cls-12{fill:#efdef8;opacity:0.09;}.cls-13{fill:#eddcf7;opacity:0.11;}.cls-14{fill:#ebdaf5;opacity:0.13;}.cls-15{fill:#ead8f3;opacity:0.16;}.cls-16{fill:#e8d6f2;opacity:0.18;}.cls-17{fill:#e6d4f0;opacity:0.2;}.cls-18{fill:#e4d2ef;opacity:0.22;}.cls-19{fill:#e3d0ed;opacity:0.24;}.cls-20{fill:#e1cdeb;opacity:0.27;}.cls-21{fill:#dfcbea;opacity:0.29;}.cls-22{fill:#ddc9e8;opacity:0.31;}.cls-23{fill:#dcc7e6;opacity:0.33;}.cls-24{fill:#dac5e5;opacity:0.36;}.cls-25{fill:#d8c3e3;opacity:0.38;}.cls-26{fill:#d6c1e1;opacity:0.4;}.cls-27{fill:#d5bfe0;opacity:0.42;}.cls-28{fill:#d3bdde;opacity:0.44;}.cls-29{fill:#d1bbdc;opacity:0.47;}.cls-30{fill:#cfb9db;opacity:0.49;}.cls-31{fill:#ceb7d9;opacity:0.51;}.cls-32{fill:#ccb5d8;opacity:0.53;}.cls-33{fill:#cab3d6;opacity:0.56;}.cls-34{fill:#c8b1d4;opacity:0.58;}.cls-35{fill:#c7afd3;opacity:0.6;}.cls-36{fill:#c5add1;opacity:0.62;}.cls-37{fill:#c3abcf;opacity:0.64;}.cls-38{fill:#c1a9ce;opacity:0.67;}.cls-39{fill:#c0a7cc;opacity:0.69;}.cls-40{fill:#bea5ca;opacity:0.71;}.cls-41{fill:#bca3c9;opacity:0.73;}.cls-42{fill:#baa0c7;opacity:0.76;}.cls-43{fill:#b99ec5;opacity:0.78;}.cls-44{fill:#b79cc4;opacity:0.8;}.cls-45{fill:#b59ac2;opacity:0.82;}.cls-46{fill:#b398c1;opacity:0.84;}.cls-47{fill:#b296bf;opacity:0.87;}.cls-48{fill:#b094bd;opacity:0.89;}.cls-49{fill:#ae92bc;opacity:0.91;}.cls-50{fill:#ac90ba;opacity:0.93;}.cls-51{fill:#ab8eb8;opacity:0.96;}.cls-52{fill:#a98cb7;opacity:0.98;}.cls-53{fill:#a78ab5;}.cls-54{clip-path:url(#clip-path-2);}.cls-55{clip-path:url(#clip-path-3);}.cls-56{fill:url(#linear-gradient-5);}.cls-57{fill:url(#linear-gradient-6);}.cls-58{fill:url(#linear-gradient-7);}.cls-59{fill:url(#linear-gradient-8);}.cls-60{fill:url(#linear-gradient-9);}.cls-61{fill:url(#linear-gradient-10);}.cls-62{fill:url(#linear-gradient-11);}.cls-63{fill:url(#linear-gradient-12);}</style><clipPath id="clip-path"><rect class="cls-1" width="1825" height="1095"/></clipPath><linearGradient id="linear-gradient" x1="-110.11" y1="-59.01" x2="1838.26" y2="1096.57" gradientUnits="userSpaceOnUse"><stop offset="0" stop-color="#e07e94"/><stop offset="0.01" stop-color="#d97993"/><stop offset="0.07" stop-color="#ac598c"/><stop offset="0.13" stop-color="#863e86"/><stop offset="0.19" stop-color="#662781"/><stop offset="0.25" stop-color="#4e167d"/><stop offset="0.32" stop-color="#3d0a7a"/><stop offset="0.39" stop-color="#320279"/><stop offset="0.48" stop-color="#2f0078"/><stop offset="0.57" stop-color="#30037c"/><stop offset="0.66" stop-color="#310a88"/><stop offset="0.75" stop-color="#34189d"/><stop offset="0.84" stop-color="#382ab9"/><stop offset="0.93" stop-color="#3d41de"/><stop offset="1" stop-color="#4256fe"/></linearGradient><linearGradient id="linear-gradient-2" x1="987.27" y1="1210.87" x2="1687.62" y2="508.24" gradientUnits="userSpaceOnUse"><stop offset="0" stop-color="#2f0078"/><stop offset="0.17" stop-color="#30037c"/><stop offset="0.34" stop-color="#310a88"/><stop offset="0.52" stop-color="#34189d"/><stop offset="0.69" stop-color="#382ab9"/><stop offset="0.87" stop-color="#3d41de"/><stop offset="1" stop-color="#4256fe"/></linearGradient><linearGradient id="linear-gradient-3" x1="926.21" y1="-209.07" x2="18.27" y2="546.03" gradientUnits="userSpaceOnUse"><stop offset="0" stop-color="#4256fe"/><stop offset="0.05" stop-color="#3d41de"/><stop offset="0.11" stop-color="#382ab9"/><stop offset="0.18" stop-color="#34189d"/><stop offset="0.24" stop-color="#310a88"/><stop offset="0.3" stop-color="#30037c"/><stop offset="0.36" stop-color="#2f0078"/><stop offset="0.48" stop-color="#320279"/><stop offset="0.58" stop-color="#3d0a7a"/><stop offset="0.67" stop-color="#4e167d"/><stop offset="0.75" stop-color="#662781"/><stop offset="0.83" stop-color="#863e86"/><stop offset="0.91" stop-color="#ac598c"/><stop offset="0.99" stop-color="#d97993"/><stop offset="1" stop-color="#e07e94"/></linearGradient><clipPath id="clip-path-2"><path class="cls-1" d="M273.38,866.79a120.44,120.44,0,0,1,0-170.26L1259.3-289.4a120.42,120.42,0,0,1,170.26,0h0a120.41,120.41,0,0,1,0,170.25L443.63,866.79a120.39,120.39,0,0,1-170.25,0Z"/></clipPath><clipPath id="clip-path-3"><path class="cls-1" d="M1003.71,602.52a93.65,93.65,0,0,1,0-132.38l766.66-766.68a93.67,93.67,0,0,1,132.41,0h0a93.68,93.68,0,0,1,0,132.4L1136.12,602.52a93.65,93.65,0,0,1-132.41,0Z"/></clipPath><linearGradient id="linear-gradient-5" x1="-110.1" y1="-59" x2="1838.25" y2="1096.56" xlink:href="#linear-gradient"/><linearGradient id="linear-gradient-6" x1="894.25" y1="100.29" x2="1271.26" y2="100.29" gradientUnits="userSpaceOnUse"><stop offset="0" stop-color="#f6df0b"/><stop offset="0.49" stop-color="#aa2ecc"/><stop offset="0.62" stop-color="#b925bc"/><stop offset="0.87" stop-color="#e10e92"/><stop offset="1" stop-color="#f7017a"/></linearGradient><linearGradient id="linear-gradient-7" x1="571.86" y1="1102.81" x2="948.88" y2="1102.81" xlink:href="#linear-gradient-6"/><linearGradient id="linear-gradient-8" x1="1578.37" y1="837.83" x2="1861.5" y2="837.83" xlink:href="#linear-gradient-6"/><linearGradient id="linear-gradient-9" x1="131.6" y1="666.91" x2="356.55" y2="666.91" xlink:href="#linear-gradient-6"/><linearGradient id="linear-gradient-10" x1="157.16" y1="161.56" x2="251.72" y2="161.56" xlink:href="#linear-gradient-6"/><linearGradient id="linear-gradient-11" x1="1512.52" y1="391.24" x2="1607.09" y2="391.24" xlink:href="#linear-gradient-6"/><linearGradient id="linear-gradient-12" x1="748.18" y1="729.17" x2="885.71" y2="729.17" xlink:href="#linear-gradient-6"/></defs><title>Untitled-10-01</title><g class="cls-2"><g id="Layer_1" data-name="Layer 1"><g class="cls-3"><polygon class="cls-4" points="1825 1095 905.66 1095 0 1095 0 0 1825 0 1825 1095"/><path class="cls-5" d="M544.34,1653.37a120.41,120.41,0,0,1,0-170.25l985.92-985.93a120.41,120.41,0,0,1,170.25,0h0a120.41,120.41,0,0,1,0,170.25L714.58,1653.37a120.36,120.36,0,0,1-170.24,0Z"/><path class="cls-6" d="M214.79,437.91a68.47,68.47,0,0,1,0-96.77L775.16-219.24a68.46,68.46,0,0,1,96.78,0h0a68.45,68.45,0,0,1,0,96.77L311.57,437.91a68.44,68.44,0,0,1-96.78,0Z"/><g class="cls-7"><path class="cls-8" d="M1362.92-71.32C1466.79,32.5,1158.39,574.62,861.69,863.35c-253.86,247-542.4,353.16-646.24,249.29S192.88,780,485.62,487.28,1259.09-175.18,1362.92-71.32Z"/><path class="cls-9" d="M1350.26-60C1452.6,42.29,1149.52,575.17,856.74,860.15c-250.9,244.2-535.83,349.53-638.14,247.18S197.27,778.5,486.18,489.6,1248-162.35,1350.26-60Z"/><path class="cls-10" d="M1337.59-48.71C1438.41,52.07,1140.66,575.71,851.79,857c-247.93,241.39-529.26,345.89-630,245.07s-20.07-325,265-610.1S1236.8-149.52,1337.59-48.71Z"/><path class="cls-11" d="M1324.92-37.4c99.3,99.26-193.13,613.66-478.08,891.16-245,238.58-522.69,342.24-621.95,243S206.06,775.48,487.31,494.24,1225.66-136.69,1324.92-37.4Z"/><path class="cls-12" d="M1312.26-26.09C1410,71.65,1122.92,576.8,841.89,850.56c-242,235.77-516.12,338.61-613.86,240.83S210.45,774,487.87,496.56,1214.51-123.86,1312.26-26.09Z"/><path class="cls-13" d="M1299.59-14.78c96.25,96.21-185.54,592.13-462.65,862.15-239,232.95-509.54,335-605.76,238.71S214.84,772.46,488.44,498.87,1203.37-111,1299.59-14.78Z"/><path class="cls-14" d="M1286.92-3.47C1381.65,91.22,1105.18,577.89,832,844.17c-236.06,230.14-503,331.33-597.66,236.6S219.24,771,489,501.19,1192.23-98.19,1286.92-3.47Z"/><path class="cls-15" d="M1274.26,7.84C1367.46,101,1096.31,578.44,827,841c-233.09,227.32-496.39,327.68-589.57,234.48s-13.83-306,252.1-571.95S1181.08-85.36,1274.26,7.84Z"/><path class="cls-16" d="M1261.59,19.15C1353.27,110.8,1087.45,579,822.08,837.78c-230.13,224.51-489.82,324-581.47,232.36S228,767.93,490.13,505.83,1169.94-72.53,1261.59,19.15Z"/><path class="cls-17" d="M1248.92,30.46c90.16,90.12-170.34,549.07-431.79,804.13C590,1056.28,333.88,1155,243.75,1064.83S232.42,766.42,490.69,508.15,1158.79-59.7,1248.92,30.46Z"/><path class="cls-18" d="M1236.26,41.77c88.63,88.6-166.55,538.3-424.08,789.62C588,1050.27,335.51,1148.15,246.9,1059.52s-10.09-294.61,244.35-549S1147.65-46.87,1236.26,41.77Z"/><path class="cls-19" d="M1223.59,53.07c87.11,87.09-162.75,527.55-416.36,775.13C586,1044.26,337.13,1141.32,250,1054.21S241.2,763.4,491.81,512.79,1136.5-34,1223.59,53.07Z"/><path class="cls-20" d="M1210.92,64.38c85.59,85.56-159,516.78-408.64,760.62C584,1038.25,338.75,1134.48,253.18,1048.89s-7.59-287,239.2-533.78S1125.36-21.2,1210.92,64.38Z"/><path class="cls-21" d="M1198.26,75.69c84.06,84-155.16,506-400.93,746.12-215.3,210.43-457,305.84-541,221.77S250,760.38,492.94,517.43,1114.22-8.37,1198.26,75.69Z"/><path class="cls-22" d="M1185.59,87c82.55,82.52-151.35,495.25-393.21,731.61C580,1026.23,342,1120.81,259.47,1038.27s-5.09-279.4,234-518.52S1103.07,4.46,1185.59,87Z"/><path class="cls-23" d="M1172.93,98.31c81,81-147.56,484.49-385.5,717.11C578.06,1020.22,343.62,1114,262.62,1033s-3.85-275.59,231.45-510.88S1091.93,17.29,1172.93,98.31Z"/><path class="cls-24" d="M1160.26,109.62c79.5,79.47-143.76,473.72-377.78,702.6-206.41,202-437.24,294.92-516.72,215.42s-2.59-271.79,228.87-503.25S1080.78,30.13,1160.26,109.62Z"/><path class="cls-25" d="M1147.59,120.93c78,77.95-140,463-370.06,688.09-203.44,199.19-430.67,291.28-508.62,213.31s-1.35-268,226.28-495.62S1069.64,43,1147.59,120.93Z"/><path class="cls-26" d="M1134.93,132.24c76.45,76.43-136.17,452.19-362.35,673.59C572.1,1002.2,348.48,1093.47,272.05,1017S272,752.83,495.76,529,1058.5,55.79,1134.93,132.24Z"/><path class="cls-27" d="M1122.26,143.55c74.93,74.9-132.37,441.43-354.63,659.08-197.51,193.56-417.53,284-492.44,209.07s1.15-260.38,221.13-480.36S1047.35,68.62,1122.26,143.55Z"/><path class="cls-28" d="M1109.59,154.86C1183,228.24,981,585.52,762.68,799.44,568.13,990.18,351.73,1079.8,278.34,1006.39s2.4-256.58,218.54-472.73S1036.21,81.45,1109.59,154.86Z"/><path class="cls-29" d="M1096.93,166.17c71.88,71.86-124.77,419.9-339.2,630.07C566.15,984.17,353.35,1073,281.48,1001.08s3.65-252.78,216-465.1S1025.06,94.28,1096.93,166.17Z"/><path class="cls-30" d="M1084.26,177.47c70.36,70.34-121,409.14-331.49,615.58C564.16,978.16,355,1066.12,284.63,995.77s4.89-249,213.38-457.47S1013.92,107.12,1084.26,177.47Z"/><path class="cls-31" d="M1071.59,188.78c68.84,68.82-117.17,398.38-323.77,601.07-185.64,182.3-391.23,269.44-460.05,200.6s6.15-245.17,210.8-449.83S1002.78,120,1071.59,188.78Z"/><path class="cls-32" d="M1058.93,200.09c67.31,67.3-113.38,387.61-316.06,586.57C560.19,966.14,358.21,1052.45,290.92,985.14s7.39-241.37,208.21-442.2S991.63,132.78,1058.93,200.09Z"/><path class="cls-33" d="M1046.26,211.4c65.79,65.77-109.58,376.85-308.34,572.06C558.21,960.13,359.84,1045.62,294.06,979.83S302.7,742.26,499.7,545.26,980.49,145.61,1046.26,211.4Z"/><path class="cls-34" d="M1033.59,222.71C1097.86,287,927.82,588.79,733,780.27,556.22,954.12,361.46,1038.78,297.2,974.52s9.89-233.77,203.06-426.94S969.34,158.44,1033.59,222.71Z"/><path class="cls-35" d="M1020.93,234C1083.67,296.75,919,589.34,728,777.07c-173.78,171-364.94,254.87-427.67,192.13s11.14-230,200.47-419.3S958.2,171.28,1020.93,234Z"/><path class="cls-36" d="M1008.26,245.33c61.22,61.21-98.18,344.55-285.19,528.55-170.82,168.22-358.37,251.23-419.58,190s12.39-226.16,197.9-411.67S947.06,184.11,1008.26,245.33Z"/><path class="cls-37" d="M995.59,256.64c59.7,59.68-94.38,333.79-277.47,514-167.85,165.41-351.8,247.59-411.48,187.9s13.63-222.37,195.31-404S935.91,196.94,995.59,256.64Z"/><path class="cls-38" d="M982.93,268c58.17,58.16-90.59,323-269.76,499.54C548.28,930.08,368,1011.44,309.78,953.27S324.67,734.7,502.51,556.86,924.77,209.77,982.93,268Z"/><path class="cls-39" d="M970.26,279.26c56.65,56.64-86.79,312.26-262,485C546.3,924.08,369.57,1004.6,312.93,948s16.13-214.76,190.14-388.77S913.62,222.6,970.26,279.26Z"/><path class="cls-40" d="M957.59,290.56c55.13,55.12-83,301.5-254.32,470.53-159,157-332.08,236.68-387.2,181.55s17.38-211,187.57-381.15S902.48,235.43,957.59,290.56Z"/><path class="cls-41" d="M944.93,301.87c53.6,53.6-79.19,290.74-246.61,456-156,154.16-325.51,233-379.11,179.43s18.63-207.16,185-373.52S891.34,248.27,944.93,301.87Z"/><path class="cls-42" d="M932.26,313.18c52.08,52.08-75.39,280-238.89,441.52-153,151.35-318.94,229.39-371,177.32s19.88-203.36,182.4-365.89S880.19,261.1,932.26,313.18Z"/><path class="cls-43" d="M919.59,324.49C970.15,375,848,593.7,688.42,751.51,538.36,900,376.06,977.26,325.5,926.7s21.13-199.55,179.83-358.25S869.05,273.93,919.59,324.49Z"/><path class="cls-44" d="M906.93,335.8c49,49-67.8,258.44-223.46,412.51C536.38,894,377.68,970.42,328.65,921.39S351,725.64,505.89,570.77,857.9,286.76,906.93,335.8Z"/><path class="cls-45" d="M894.26,347.11c47.51,47.51-64,247.68-215.74,398C534.39,888,379.3,963.59,331.79,916.08s23.62-192,174.66-343S846.76,299.59,894.26,347.11Z"/><path class="cls-46" d="M881.6,358.42c46,46-60.2,236.91-208,383.5C532.41,882,380.92,956.75,334.93,910.76S359.81,722.62,507,575.41,835.62,312.43,881.6,358.42Z"/><path class="cls-47" d="M868.93,369.73c44.46,44.46-56.4,226.15-200.32,369C530.42,876,382.54,949.91,338.08,905.45s26.12-184.34,169.5-327.72S824.47,325.26,868.93,369.73Z"/><path class="cls-48" d="M856.26,381c42.94,42.94-52.6,215.38-192.6,354.49C528.44,870,384.17,943.08,341.22,900.14S368.59,719.6,508.14,580.05,813.33,338.09,856.26,381Z"/><path class="cls-49" d="M843.6,392.35C885,433.77,794.79,597,658.71,732.34,526.45,864,385.79,936.24,344.37,894.83S373,718.09,508.7,582.37,802.18,350.92,843.6,392.35Z"/><path class="cls-50" d="M830.93,403.65c39.89,39.9-45,193.86-177.17,325.49C524.47,858,387.41,929.41,347.51,889.51s29.87-172.93,161.76-304.82S791,363.75,830.93,403.65Z"/><path class="cls-51" d="M818.26,415c38.37,38.38-41.21,183.1-169.45,311C522.48,852,389,922.57,350.66,884.2S381.77,715.07,509.83,587,779.89,376.58,818.26,415Z"/><path class="cls-52" d="M805.6,426.27c36.84,36.86-37.41,172.33-161.74,296.48C520.5,846,390.65,915.74,353.8,878.89s32.36-165.33,156.59-289.56S768.75,389.42,805.6,426.27Z"/><path class="cls-53" d="M792.93,437.58c35.32,35.33-33.61,161.57-154,282s-246.63,189.34-282,154,33.62-161.53,154-281.94S757.61,402.25,792.93,437.58Z"/></g><g class="cls-54"><rect class="cls-4" width="1825" height="1095"/></g><g class="cls-7"><path class="cls-8" d="M1955.89-245.58c80.77,80.73-159,502.29-389.76,726.82-197.4,192.08-421.78,274.62-502.51,193.85s-17.56-258.65,210.08-486.3S1875.15-326.34,1955.89-245.58Z"/><path class="cls-9" d="M1946-236.79c79.58,79.55-156.08,493.93-383.76,715.54C1367.19,668.65,1145.61,750.54,1066.06,671s-16.58-255.7,208.08-480.37S1866.49-316.37,1946-236.79Z"/><path class="cls-10" d="M1936.19-228c78.4,78.36-153.12,485.55-377.76,704.26-192.79,187.71-411.56,269-489.92,190.56s-15.62-252.74,206.07-474.43S1857.82-306.39,1936.19-228Z"/><path class="cls-11" d="M1926.34-219.2c77.22,77.18-150.17,477.18-371.76,693C1364.1,659.3,1148.13,739.91,1071,662.7S1056.31,412.91,1275,194.2,1849.15-296.41,1926.34-219.2Z"/><path class="cls-12" d="M1916.49-210.41c76,76-147.22,468.82-365.76,681.71-188.17,183.33-401.33,263.3-477.34,187.26S1059.72,411.74,1275.45,196,1840.49-286.43,1916.49-210.41Z"/><path class="cls-13" d="M1906.64-201.61c74.85,74.82-144.26,460.44-359.76,670.42C1361,650,1150.66,729.28,1075.84,654.43s-12.7-243.87,200.05-456.62S1831.82-276.45,1906.64-201.61Z"/><path class="cls-14" d="M1896.79-192.82c73.66,73.64-141.31,452.07-353.76,659.15-183.56,179-391.11,257.64-464.75,184s-11.72-240.91,198-450.69S1823.16-266.47,1896.79-192.82Z"/><path class="cls-15" d="M1886.94-184c72.48,72.45-138.36,443.7-347.76,647.86-181.25,176.77-386,254.81-458.45,182.33s-10.76-238,196-444.75S1814.49-256.5,1886.94-184Z"/><path class="cls-16" d="M1877.09-175.23c71.3,71.27-135.4,435.33-341.76,636.59-178.95,174.58-380.89,252-452.16,180.68s-9.78-235,194-438.82S1805.83-246.52,1877.09-175.23Z"/><path class="cls-17" d="M1867.24-166.44c70.11,70.09-132.45,427-335.76,625.31-176.64,172.39-375.78,249.15-445.86,179s-8.82-232,192-432.89S1797.16-236.54,1867.24-166.44Z"/><path class="cls-18" d="M1857.39-157.64c68.93,68.9-129.5,418.59-329.76,614C1353.3,626.59,1157,702.7,1088.06,633.78s-7.84-229.09,190-426.95S1788.5-226.56,1857.39-157.64Z"/><path class="cls-19" d="M1847.54-148.85C1915.28-81.13,1721,261.37,1523.79,453.9c-172,168-365.56,243.49-433.28,175.75s-6.87-226.14,188-421S1779.83-216.58,1847.54-148.85Z"/><path class="cls-20" d="M1837.69-140c66.56,66.53-123.59,401.85-317.75,591.47-169.73,165.82-360.45,240.65-427,174.1s-5.9-223.18,186-415.09S1771.16-206.61,1837.69-140Z"/><path class="cls-21" d="M1827.84-131.26c65.38,65.35-120.64,393.48-311.75,580.19-167.42,163.64-355.34,237.83-420.69,172.45s-4.93-220.22,184-409.14S1762.5-196.63,1827.84-131.26Z"/><path class="cls-22" d="M1818-122.46c64.18,64.16-117.69,385.1-305.76,568.91-165.12,161.45-350.23,235-414.4,170.8s-4-217.26,182-403.21S1753.83-186.65,1818-122.46Z"/><path class="cls-23" d="M1808.15-113.67c63,63-114.74,376.74-299.76,557.63-162.81,159.26-345.12,232.16-408.1,169.16s-3-214.3,180-397.27S1745.17-176.67,1808.15-113.67Z"/><path class="cls-24" d="M1798.3-104.88c61.81,61.8-111.78,368.37-293.76,546.36C1344,598.55,1164.53,670.81,1102.73,609s-2-211.35,178-391.34S1736.5-166.69,1798.3-104.88Z"/><path class="cls-25" d="M1788.45-96.08c60.63,60.61-108.83,360-287.76,535.07-158.2,154.89-334.9,226.5-395.51,165.87s-1-208.39,176-385.41S1727.84-156.72,1788.45-96.08Z"/><path class="cls-26" d="M1778.6-87.29c59.45,59.43-105.88,351.63-281.76,523.8C1341,589.2,1167.06,660.18,1107.62,600.73s-.07-205.44,174-379.47S1719.17-146.74,1778.6-87.29Z"/><path class="cls-27" d="M1768.75-78.49C1827-20.25,1665.83,264.76,1493,434c-153.58,150.51-324.67,220.84-382.92,162.58s.89-202.48,172-373.54S1710.51-136.76,1768.75-78.49Z"/><path class="cls-28" d="M1758.9-69.7c57.08,57.06-100,334.89-269.76,501.24-151.28,148.32-319.56,218-376.63,160.93s1.87-199.53,170-367.61S1701.84-126.78,1758.9-69.7Z"/><path class="cls-29" d="M1749.05-60.91c55.89,55.88-97,326.52-263.76,490-149,146.12-314.45,215.17-370.33,159.27s2.83-196.56,167.93-361.66S1693.17-116.8,1749.05-60.91Z"/><path class="cls-30" d="M1739.2-52.11c54.71,54.69-94.06,318.14-257.76,478.68-146.66,143.94-309.34,212.34-364,157.63s3.81-193.61,165.93-355.73S1684.51-106.83,1739.2-52.11Z"/><path class="cls-31" d="M1729.35-43.32c53.53,53.51-91.11,309.78-251.76,467.41-144.36,141.75-304.23,209.51-357.74,156s4.78-190.65,163.92-349.8S1675.84-96.85,1729.35-43.32Z"/><path class="cls-32" d="M1719.5-34.52c52.34,52.33-88.16,301.4-245.76,456.12-142,139.56-299.12,206.68-351.45,154.34s5.75-187.7,161.92-343.86S1667.18-86.87,1719.5-34.52Z"/><path class="cls-33" d="M1709.65-25.73c51.16,51.15-85.2,293-239.76,444.85-139.74,137.37-294,203.85-345.15,152.69s6.72-184.74,159.9-337.93S1658.51-76.89,1709.65-25.73Z"/><path class="cls-34" d="M1699.8-16.94c50,50-82.25,284.67-233.76,433.57-137.44,135.19-288.89,201-338.86,151s7.69-181.79,157.9-332S1649.85-66.91,1699.8-16.94Z"/><path class="cls-35" d="M1690-8.14c48.79,48.78-79.3,276.29-227.76,422.29-135.13,133-283.78,198.18-332.56,149.4s8.66-178.83,155.89-326.06S1641.18-56.93,1690-8.14Z"/><path class="cls-36" d="M1680.1.65c47.61,47.6-76.34,267.93-221.76,411C1325.52,542.47,1179.67,607,1132.07,559.42s9.64-175.88,153.89-320.13S1632.52-47,1680.1.65Z"/><path class="cls-37" d="M1670.25,9.45c46.42,46.41-73.39,259.55-215.76,399.73-130.52,128.62-273.56,192.52-320,146.1s10.61-172.91,151.89-314.18S1623.85-37,1670.25,9.45Z"/><path class="cls-38" d="M1660.41,18.24c45.23,45.23-70.44,251.18-209.77,388.45C1322.43,533.12,1182.19,596.39,1137,551.15s11.58-169.95,149.87-308.25S1615.18-27,1660.41,18.24Z"/><path class="cls-39" d="M1650.56,27c44,44.05-67.49,242.82-203.77,377.18C1320.89,528.45,1183.45,591.07,1139.4,547S1152,380,1287.27,244.7,1606.52-17,1650.56,27Z"/><path class="cls-40" d="M1640.71,35.83c42.86,42.86-64.54,234.44-197.77,365.89-123.6,122.06-258.22,184-301.09,141.17s13.52-164,145.86-296.38S1597.85-7,1640.71,35.83Z"/><path class="cls-41" d="M1630.86,44.62c41.68,41.68-61.58,226.08-191.77,354.62C1317.8,519.1,1186,580.44,1144.29,538.76s14.5-161.09,143.86-290.45S1589.19,2.93,1630.86,44.62Z"/><path class="cls-42" d="M1621,53.42c40.49,40.49-58.63,217.7-185.77,343.33-119,117.68-248,178.37-288.5,137.88s15.46-158.13,141.84-284.52S1580.52,12.91,1621,53.42Z"/><path class="cls-43" d="M1611.16,62.21c39.31,39.31-55.68,209.33-179.77,332.06C1314.71,509.76,1188.5,569.81,1149.18,530.5S1165.62,375.32,1289,251.92,1571.86,22.89,1611.16,62.21Z"/><path class="cls-44" d="M1601.31,71c38.12,38.12-52.72,201-173.77,320.77-114.37,113.3-237.78,172.71-275.91,134.59s17.4-152.22,137.83-272.65S1563.19,32.87,1601.31,71Z"/><path class="cls-45" d="M1591.46,79.8c36.94,36.94-49.77,192.59-167.76,309.5C1311.63,500.41,1191,559.18,1154.07,522.24S1172.45,373,1289.9,255.52,1554.53,42.85,1591.46,79.8Z"/><path class="cls-46" d="M1581.61,88.59c35.76,35.76-46.82,184.22-161.76,298.22-109.77,108.93-227.57,167.05-263.33,131.29s19.35-146.3,133.81-260.77S1545.86,52.82,1581.61,88.59Z"/><path class="cls-47" d="M1571.76,97.39C1606.33,132,1527.9,273.24,1416,384.33,1308.54,491.06,1193.55,548.54,1159,514s20.32-143.35,131.81-254.84S1537.19,62.8,1571.76,97.39Z"/><path class="cls-48" d="M1561.91,106.18c33.39,33.39-40.91,167.48-149.76,275.66-105.15,104.55-217.34,161.39-250.74,128s21.29-140.39,129.8-248.9S1528.53,72.78,1561.91,106.18Z"/><path class="cls-49" d="M1552.06,115c32.2,32.2-38,159.11-143.76,264.38-102.85,102.36-212.23,158.55-244.45,126.35s22.26-137.44,127.8-243S1519.86,82.76,1552.06,115Z"/><path class="cls-50" d="M1542.21,123.77c31,31-35,150.74-137.76,253.1C1303.91,477,1197.33,532.6,1166.3,501.58s23.23-134.48,125.78-237S1511.2,92.74,1542.21,123.77Z"/><path class="cls-51" d="M1532.36,132.56c29.84,29.84-32,142.37-131.76,241.83-98.23,98-202,152.89-231.86,123.06s24.21-131.53,123.78-231.1S1502.53,102.71,1532.36,132.56Z"/><path class="cls-52" d="M1522.51,141.36c28.65,28.65-29.09,134-125.76,230.54-95.93,95.8-196.9,150.07-225.56,121.42S1196.36,364.75,1293,268.15,1493.87,112.69,1522.51,141.36Z"/><path class="cls-53" d="M1512.66,150.15c27.47,27.48-26.14,125.63-119.76,219.27s-191.79,147.23-219.27,119.77S1199.78,363.57,1293.4,270,1485.2,122.67,1512.66,150.15Z"/></g><g class="cls-55"><rect class="cls-56" x="0.02" width="1824.96" height="1095"/></g><polygon class="cls-57" points="894.25 285.93 897.14 288.78 1271.26 -85.36 1268.41 -88.21 894.25 285.93"/><polygon class="cls-58" points="571.86 1288.46 574.75 1291.31 948.88 917.17 946.02 914.32 571.86 1288.46"/><polygon class="cls-59" points="1578.38 976.54 1581.26 979.39 1861.5 699.13 1858.65 696.28 1578.38 976.54"/><polygon class="cls-60" points="131.6 776.52 134.45 779.39 356.55 557.28 353.7 554.43 131.6 776.52"/><polygon class="cls-61" points="157.16 205.97 160.04 208.84 251.72 117.13 248.87 114.28 157.16 205.97"/><polygon class="cls-62" points="1512.52 435.66 1515.41 438.53 1607.09 346.81 1604.23 343.96 1512.52 435.66"/><polygon class="cls-63" points="748.18 795.09 751.05 797.94 885.71 663.26 882.86 660.4 748.18 795.09"/></g></g></g></svg>
